# xmcd
#
# Track frame offsets: 
#        150
#        15000
#        23617
#        37125
#        51572
#        64337
#        78075
#        88222
#        102100
#        115130
#        127657
#        137092
#        151120
#        162585
#        175120
#        186652
#        201235
#        216900
#        233912
#        249265
#        258615
#        268107
#        282550
#        294635
#        307632
#        317680
#        332570
#        346252
#
# Disc length: 4753 seconds
#
# Revision: 4
# Processed by: cddbd v1.5.2PL0 Copyright (c) Steve Scherf et al.
# Submitted via: ExactAudioCopy v0.99pb5
#
DISCID=92128f1c
DTITLE=Marty Robbins - Country 1960-1966 - Disc 3 of 4
DYEAR=1962
DGENRE=Country
TTITLE0=Don't Worry (1960  CS 8435)
TTITLE1=A Time And Place For Everything (1960  CS 8435)
TTITLE2=Sixty-Two's Most Promising Fool (Recorded 1962 - Released 1995
TTITLE2=BCD 15655-3)
TTITLE3=Too Far Gone (1962  Columbia Single 4-42375)
TTITLE4=April Fool's Day (1962  Columbia Single 4-42486)
TTITLE5=Rich Man, Rich Man (Recorded 1962 - Released 1995 BCD 15655-3)
TTITLE6=Ive Got A Woman's Love (Recorded 1962 - Released 1995 BCD 1565
TTITLE6=5-3)
TTITLE7=Little Rich Girl (Recorded 1962 - Released 1995 BCD 15655-3)
TTITLE8=Never Look Back (Recorded 1962 - Released 1995 BCD 15655-3)
TTITLE9=I'm Beginning To Forget You (1962  CS 8718)
TTITLE10=Progressive Love (1962  CS 8718)
TTITLE11=The Hands You're Holding Now (1962  CS 8718)
TTITLE12=Ain't Life A Cryin' Shame (1962  CS 8718)
TTITLE13=Kinda Halfway Feel (1962  CS 8718)
TTITLE14=Little Rich Girl (1962  CS 8718)
TTITLE15=Will The Circle Be Unbroken (Recorded 1963 - Released 1965  C
TTITLE15=S 9248)
TTITLE16=A Little Spot In Heaven (Recorded 1963 - Released 1965  CS 92
TTITLE16=48)
TTITLE17=An Evening Prayer (Recorded 1963 - Released 1965  CS 9248)
TTITLE18=With His Hand On My Shoulder (Recorded 1963 - Released 1965  
TTITLE18=CS 9248)
TTITLE19=There's Power In The Blood (Recorded 1963 - Released 1965  CS
TTITLE19=9248)
TTITLE20=When The Roll Is Called Up Yonder (Recorded 1963 - Released 1
TTITLE20=965  CS 9248)
TTITLE21=Where Could I Go (But To The Lord) (Recorded 1963 - Released 
TTITLE21=1984  KC2 39575)
TTITLE22=Almost Persuaded (Recorded 1963 - Released 1965  CS 9248)
TTITLE23=What God Has Done (Recorded 1963 - Released 1965  CS 9248)
TTITLE24=You Gotta Climb (Recorded 1963 - Released 1965  CS 9248)
TTITLE25=The Great Speckled Bird (1965  CS 9248)
TTITLE26=Who At My Door Is Standing (1965  CS 9248)
TTITLE27=Have Thine Own Way, Lord (1965  CS 9248)
EXTD=Country 1960-1966 - Disc 3 of 4\n© 1995 Bear Family Records\n\nUP
EXTD=C: 4000127156556\nCat Number: BCD 15655 DI\n\nOriginally Released
EXTD=October 17, 1995\n\nAMG EXPERT REVIEW: Cutting away all of Marty
EXTD=Robbins' rock and roll, Hawaiian and cowboy recordings, Bear Famil
EXTD=y's four-disc box set Country (1960-1966) contains nothing but hi
EXTD=s straight country and country-pop recordings of the early '60s. 
EXTD=During that era, Robbins was one of the most popular performers i
EXTD=n country music, scoring an impressive series of Top 10 hits and 
EXTD=pop crossovers like "Don't Worry" and "Devil Woman," which are al
EXTD=l included on this set. Where many Bear Family sets are so thorou
EXTD=gh and complete, they merely wind up being exhausting, Country (1
EXTD=960-1966) is entertaining from start to finish, since it is seque
EXTD=nced in a logical, listenable order and doesn't dwell on the rari
EXTD=ties. Any serious fan of Robbins will find the set an essential a
EXTD=ddition to their library, and it is arguably the finest Robbins b
EXTD=ox Bear Family has released. -- Stephen Thomas Erlewine\n\nHalf.c
EXTD=om Album Notes\nRecorded between 1960 and 1966. Includes liner no
EXTD=tes by Colin Escott.
EXTT0=
EXTT1=
EXTT2=
EXTT3=
EXTT4=
EXTT5=
EXTT6=
EXTT7=
EXTT8=
EXTT9=
EXTT10=
EXTT11=
EXTT12=
EXTT13=
EXTT14=
EXTT15=
EXTT16=
EXTT17=
EXTT18=
EXTT19=
EXTT20=
EXTT21=
EXTT22=
EXTT23=
EXTT24=
EXTT25=
EXTT26=
EXTT27=
PLAYORDER=
